<?xml version="1.0" encoding="UTF-8"?><svg xmlns="http://www.w3.org/2000/svg" width="120" height="26" viewBox="0 0 129 28" fill="none">
    <g clip-path="url(#clip0)">
        <mask id="mask0" mask-type="alpha" maskUnits="userSpaceOnUse" x="0" y="0" width="129" height="29">
            <path d="M0.110535 28.0005H128.828V0.163452H0.110535V28.0005Z" fill="white"/>
        </mask>
        <g mask="url(#mask0)">
            <path fill-rule="evenodd" clip-rule="evenodd" d="M22.5777 27.6136H30.0796V0.163208H22.5777V27.6136Z" fill="#F71414"/>
            <path fill-rule="evenodd" clip-rule="evenodd" d="M42.9397 13.0765C40.7197 13.0765 39.8012 14.8165 39.8012 17.0586C39.8012 19.3012 40.7197 21.1181 42.9397 21.1181C45.1597 21.1181 46.0781 19.3012 46.0781 17.0586C46.0781 14.8165 45.1597 13.0765 42.9397 13.0765ZM42.9397 28.0004C35.8205 28.0004 32.0696 24.25 32.0696 17.0586C32.0696 9.86767 35.8205 6.19482 42.9397 6.19482C50.0589 6.19482 53.8098 9.86767 53.8098 17.0586C53.8098 24.25 50.0589 28.0004 42.9397 28.0004Z" fill="#F71414"/>
            <path fill-rule="evenodd" clip-rule="evenodd" d="M71.7991 20.0357V26.9178C70.1912 27.6136 68.1247 28.0002 66.5172 28.0002C59.5508 28.0002 55.4939 24.0951 55.4939 17.0589C55.4939 10.0221 59.5508 6.1947 66.5172 6.1947C68.1247 6.1947 70.1912 6.58096 71.7991 7.27719V14.1593C70.4593 13.5406 68.7752 13.0766 67.4357 13.0766C64.7565 13.0766 63.2256 14.5459 63.2256 17.0589C63.2256 19.5721 64.7565 21.1182 67.4357 21.1182C68.7752 21.1182 70.4593 20.6545 71.7991 20.0357Z" fill="#F71414"/>
            <path fill-rule="evenodd" clip-rule="evenodd" d="M88.4101 15.7827L95.7972 27.6136H86.8793L81.4441 18.2187V27.6136H73.9425V0.163208H81.4441V13.4632L86.6494 6.58095H95.7972L88.4101 15.7827Z" fill="#F71414"/>
            <path fill-rule="evenodd" clip-rule="evenodd" d="M106.935 14.5072C106.935 12.8831 106.132 11.6846 104.371 11.6846C102.61 11.6846 101.807 12.8831 101.807 14.5072H106.935ZM114.131 18.7602H101.807C102.036 20.925 104.103 21.814 106.897 21.814C109.079 21.814 111.949 21.2346 114.131 20.3063V26.3762C111.528 27.5362 108.504 28.0004 105.595 28.0004C97.7876 28.0004 94.1518 24.25 94.1518 17.0586C94.1518 9.94467 98.0173 6.19482 104.6 6.19482C110.801 6.19482 114.131 10.3313 114.131 16.595V18.7602Z" fill="#F71414"/>
            <path fill-rule="evenodd" clip-rule="evenodd" d="M123.47 13.3085V16.827C123.47 19.9197 125.46 20.9638 128.445 20.9638H128.828V27.6912C128.139 27.8073 127.374 27.8846 126.685 27.8846C119.642 27.8846 115.968 24.0953 115.968 16.9817V1.1687H123.47V6.58114H128.828V13.3085H123.47Z" fill="#F71414"/>
            <mask id="mask1" mask-type="alpha" maskUnits="userSpaceOnUse" x="0" y="0" width="21" height="28">
                <path d="M0.110535 0.163452H20.5873V27.6136H0.110535V0.163452Z" fill="white"/>
            </mask>
            <g mask="url(#mask1)">
                <path fill-rule="evenodd" clip-rule="evenodd" d="M8.91372 12.9221C8.49278 12.9221 7.95706 12.9991 7.61235 13.0764V21.0413H8.9903C11.5165 21.0413 12.8562 19.4559 12.8562 16.9042C12.8562 14.3524 11.4399 12.9221 8.91372 12.9221ZM9.33483 27.6136H0.110447V0.163208H7.61235V6.46518C8.33944 6.31082 9.25807 6.1947 10.0619 6.1947C16.6452 6.1947 20.5873 9.86754 20.5873 16.9042C20.5873 24.0181 16.3772 27.6136 9.33483 27.6136Z" fill="#F71414"/>
            </g>
        </g>
    </g>
    <defs>
        <clipPath id="clip0">
            <rect width="129" height="28" fill="white"/>
        </clipPath>
    </defs>
</svg>