<svg xmlns="http://www.w3.org/2000/svg" xmlns:xlink="http://www.w3.org/1999/xlink" xml:space="preserve" version="1.1" style="shape-rendering:geometricPrecision;text-rendering:geometricPrecision;image-rendering:optimizeQuality;" viewBox="0 0 310 142.5" x="0px" y="0px" fill-rule="evenodd" clip-rule="evenodd"><defs></defs><g><path class="fil0" d="M272 31l21 -1c9,0 17,8 17,17l0 27c0,9 -8,17 -17,17l-20 0c-2,13 -13,23 -27,23 -14,0 -25,-10 -27,-23l-142 0c-2,13 -14,23 -28,23 -13,0 -25,-10 -27,-23l-5 0c-19,0 -25,-31 -3,-41 19,-10 56,-14 70,-15 18,-21 54,-35 96,-35 38,0 72,12 92,31zm-26 36c11,0 20,9 20,20 0,11 -9,19 -20,19 -11,0 -19,-8 -19,-19 0,-11 8,-20 19,-20zm-197 0c11,0 20,9 20,20 0,11 -9,19 -20,19 -10,0 -19,-8 -19,-19 0,-11 9,-20 19,-20zm131 -60l0 28c26,-1 52,-2 77,-3 -16,-16 -46,-25 -77,-25zm-6 28l0 -28c-31,1 -61,11 -76,29 25,0 50,0 76,-1z"/><path class="fil0" d="M171 21l4 0 0 15 -8 0 0 -10c0,-3 2,-5 4,-5z"/></g></svg>