<svg xmlns="http://www.w3.org/2000/svg" xmlns:xlink="http://www.w3.org/1999/xlink" version="1.1" x="0px" y="0px" viewBox="0 0 100 125" style="enable-background:new 0 0 100 100;" xml:space="preserve"><path d="M36.063,38.318c0.62,0.622,1.477,1.008,2.423,1.008c1.888,0,3.424-1.536,3.424-3.423c0-0.552-0.448-1-1-1s-1,0.448-1,1  c0,0.785-0.639,1.423-1.424,1.423c-0.785,0-1.423-0.639-1.423-1.423v-2.218c1.305-0.425,2.257-1.639,2.257-3.084  c0-1.796-1.461-3.257-3.257-3.257s-3.257,1.461-3.257,3.257c0,1.445,0.952,2.659,2.257,3.084v2.218c0,0.785-0.639,1.423-1.423,1.423  s-1.423-0.639-1.423-1.423c0-0.552-0.448-1-1-1s-1,0.448-1,1c0,1.888,1.536,3.423,3.423,3.423  C34.586,39.326,35.443,38.94,36.063,38.318z M36.063,29.343c0.693,0,1.257,0.564,1.257,1.257s-0.564,1.257-1.257,1.257  s-1.257-0.564-1.257-1.257S35.37,29.343,36.063,29.343z"/><path d="M89.125,79.175h-7.859c2.336-0.925,4.386-2.464,5.934-4.524c4.57-6.084,3.338-14.752-2.747-19.322  c-6.085-4.571-14.753-3.338-19.323,2.747c-2.213,2.948-3.147,6.581-2.628,10.23c0.519,3.65,2.428,6.879,5.375,9.093  c0.986,0.74,2.051,1.329,3.165,1.777h-18.33c2.658-1.812,4.408-4.862,4.408-8.314c0-2.742-1.106-5.229-2.891-7.045  c0.166,0.012,0.329,0.039,0.496,0.039c3.759,0,6.816-3.058,6.816-6.816c0-6.58-7.874-11.966-18.862-13.565  c5.307-2.512,8.995-7.904,8.995-14.155c0-1.907-0.344-3.771-1.022-5.551c2.03-1.401,3.259-3.708,3.259-6.212  c0-4.166-3.389-7.555-7.555-7.555c-2.827,0-5.417,1.608-6.703,4.083c-2.398-0.576-4.896-0.576-7.295,0  C31.076,11.609,28.487,10,25.66,10c-4.166,0-7.555,3.389-7.555,7.555c0,2.505,1.229,4.811,3.259,6.212  c-0.679,1.781-1.022,3.644-1.022,5.551c0,6.235,3.67,11.616,8.956,14.136c-11.053,1.576-18.986,6.979-18.986,13.584  c0,3.759,3.058,6.816,6.816,6.816c0.227,0,0.449-0.031,0.673-0.053c-1.793,1.817-2.904,4.31-2.904,7.059  c0,3.452,1.75,6.503,4.408,8.314h-8.18c-0.552,0-1,0.448-1,1V89c0,0.552,0.448,1,1,1h78c0.552,0,1-0.448,1-1v-8.825  C90.125,79.623,89.677,79.175,89.125,79.175z M83.252,56.929c2.238,1.681,3.702,4.011,4.34,6.533c-2.7,0.141-5.364-0.65-7.54-2.285  c-2.171-1.63-3.673-3.957-4.291-6.586c0.14-0.005,0.278-0.024,0.418-0.024C78.646,54.568,81.133,55.336,83.252,56.929z   M66.73,59.277c1.791-2.385,4.32-3.886,7.034-4.449c0.691,3.176,2.48,5.99,5.087,7.949c2.359,1.771,5.203,2.714,8.124,2.714  c0.311,0,0.624-0.024,0.937-0.045c0.218,2.766-0.519,5.617-2.312,8.004c-1.784,2.376-4.345,3.949-7.247,4.495  c-0.717-3.108-2.486-5.86-5.048-7.785c-2.561-1.922-5.692-2.857-8.873-2.679C64.15,64.545,64.948,61.651,66.73,59.277z   M64.789,69.464c2.627-0.085,5.199,0.706,7.315,2.296c2.118,1.591,3.6,3.843,4.246,6.394c-2.609,0.046-5.149-0.761-7.271-2.355  C66.955,74.204,65.472,71.988,64.789,69.464z M47.066,78.917c-4.442,0-8.057-3.614-8.057-8.056s3.614-8.057,8.057-8.057  s8.056,3.614,8.056,8.057S51.508,78.917,47.066,78.917z M20.19,62.007c-0.036-0.435-0.057-0.873-0.057-1.309  c0-8.643,7.017-15.676,15.653-15.708c0.031,0,0.062-0.001,0.093-0.001c8.647,0.019,15.677,7.058,15.677,15.71  c0,0.386-0.014,0.773-0.042,1.158c-1.343-0.667-2.85-1.051-4.449-1.051c-5.545,0-10.057,4.511-10.057,10.057  c0,1.943,0.563,3.753,1.521,5.292c-1.673,0.287-3.395,0.306-5.074,0.051c0.978-1.55,1.553-3.379,1.553-5.344  c0-5.545-4.511-10.057-10.057-10.057C23.231,60.804,21.609,61.241,20.19,62.007z M59.543,57.039c0,2.656-2.161,4.816-4.816,4.816  c-0.412,0-0.814-0.065-1.206-0.167c0.018-0.33,0.036-0.66,0.036-0.99c0-6.002-3.008-11.308-7.589-14.513  C53.915,48.156,59.543,52.334,59.543,57.039z M22.341,29.318c0-1.918,0.399-3.787,1.187-5.554c0.214-0.481,0.019-1.047-0.448-1.292  c-1.835-0.965-2.975-2.849-2.975-4.917c0-3.063,2.492-5.555,5.555-5.555c2.304,0,4.394,1.455,5.2,3.62  c0.183,0.493,0.716,0.759,1.224,0.609c2.564-0.769,5.286-0.769,7.851,0c0.509,0.153,1.041-0.115,1.224-0.609  c0.807-2.165,2.896-3.62,5.201-3.62c3.063,0,5.555,2.492,5.555,5.555c0,2.068-1.14,3.952-2.976,4.917  c-0.467,0.246-0.663,0.811-0.448,1.292c0.788,1.767,1.187,3.635,1.187,5.554c0,7.537-6.131,13.668-13.668,13.668  S22.341,36.855,22.341,29.318z M12.311,57.039c0-4.655,5.511-8.792,13.324-10.788c-4.531,3.211-7.502,8.484-7.502,14.448  c0,0.343,0.02,0.686,0.04,1.029c-0.342,0.076-0.69,0.128-1.045,0.128C14.472,61.855,12.311,59.694,12.311,57.039z M16.896,70.861  c0-4.442,3.614-8.057,8.056-8.057s8.057,3.614,8.057,8.057s-3.614,8.056-8.057,8.056S16.896,75.303,16.896,70.861z M32.034,77.993  c1.246,0.273,2.526,0.417,3.812,0.417c1.379,0,2.751-0.162,4.082-0.476c0.455,0.46,0.954,0.876,1.491,1.241H30.601  C31.115,78.825,31.594,78.429,32.034,77.993z M88.125,88h-76v-6.825h76V88z"/></svg>